<?xml version="1.0" encoding="UTF-8" standalone="no"?>
<!-- Created with Inkscape (http://www.inkscape.org/) -->

<svg
   xmlns:dc="http://purl.org/dc/elements/1.1/"
   xmlns:cc="http://creativecommons.org/ns#"
   xmlns:rdf="http://www.w3.org/1999/02/22-rdf-syntax-ns#"
   xmlns:svg="http://www.w3.org/2000/svg"
   xmlns="http://www.w3.org/2000/svg"
   xmlns:sodipodi="http://sodipodi.sourceforge.net/DTD/sodipodi-0.dtd"
   xmlns:inkscape="http://www.inkscape.org/namespaces/inkscape"
   width="190.93477mm"
   height="39.362617mm"
   viewBox="0 0 190.93477 39.362619"
   version="1.1"
   id="svg8"
   inkscape:version="0.92.1 r15371"
   sodipodi:docname="broadwayPizza.svg">
  <sodipodi:namedview
     id="base"
     pagecolor="#ffffff"
     bordercolor="#666666"
     borderopacity="1.0"
     inkscape:pageopacity="0.0"
     inkscape:pageshadow="2"
     inkscape:zoom="1.4"
     inkscape:cx="281.56729"
     inkscape:cy="151.51917"
     inkscape:document-units="mm"
     inkscape:current-layer="layer1"
     showgrid="false"
     inkscape:window-width="1920"
     inkscape:window-height="1017"
     inkscape:window-x="1358"
     inkscape:window-y="-8"
     inkscape:window-maximized="1">
    <sodipodi:guide
       inkscape:locked="false"
       id="guide4493"
       orientation="0,715.72831"
       position="176.91941,0.78250058" />
    <sodipodi:guide
       inkscape:locked="false"
       id="guide4495"
       orientation="-112.13034,0"
       position="190.15228,4.1842863" />
    <sodipodi:guide
       inkscape:locked="false"
       id="guide4497"
       orientation="0,-715.72831"
       position="194.11732,38.580121" />
    <sodipodi:guide
       inkscape:locked="false"
       id="guide4499"
       orientation="112.13034,0"
       position="0.78250073,33.852105" />
  </sodipodi:namedview>
  <defs
     id="defs2" />
  <metadata
     id="metadata5">
    <rdf:RDF>
      <cc:Work
         rdf:about="">
        <dc:format>image/svg+xml</dc:format>
        <dc:type
           rdf:resource="http://purl.org/dc/dcmitype/StillImage" />
        <dc:title />
      </cc:Work>
    </rdf:RDF>
  </metadata>
  <g
     transform="translate(-10.216727,-95.255548)"
     id="layer1"
     inkscape:groupmode="layer"
     inkscape:label="Layer 1">
    <g
       aria-label="BROADWAY PIZZA"
       style="font-style:normal;font-variant:normal;font-weight:normal;font-stretch:normal;font-size:10.58333302px;line-height:1.25;font-family:Broadway;-inkscape-font-specification:Broadway;letter-spacing:0px;word-spacing:0px;fill:#ffffff;fill-opacity:1;stroke:#000000;stroke-width:1.76499999;stroke-miterlimit:4;stroke-dasharray:none;stroke-opacity:1;paint-order:stroke markers fill"
       id="text4487">
      <path
         d="m 22.229439,109.52682 q 0.694531,0.50161 1.03215,1.09968 0.347266,0.58842 0.347266,1.27331 0,1.10932 -0.858518,2.045 -1.051443,1.15756 -3.163976,1.25402 -1.167198,0.0579 -3.279731,0.0579 h -4.774902 l 0.0096,-0.45338 0.01929,-1.87137 0.02894,-3.68488 -0.03859,-4.01285 -0.01929,-3.14468 h 5.170399 q 1.9389,0 2.66237,0.0675 0.733116,0.0579 1.504818,0.29904 0.819933,0.26045 1.533756,0.76205 0.713824,0.50161 1.109321,1.09968 0.617361,0.93569 0.617361,2.09324 0,1.0418 -0.511252,1.88102 -0.511252,0.83923 -1.389062,1.23472 z m -0.781348,0.25081 q -0.41479,0.0868 -0.771702,0.0868 -0.762055,0 -1.234722,-0.2508 -0.463021,-0.2508 -0.463021,-0.65595 0,-0.22186 0.154341,-0.22186 0.115755,0 0.318327,0.0965 0.665592,0.33762 1.44694,0.33762 1.418001,0 2.141471,-1.11897 0.463021,-0.70417 0.463021,-1.61092 0,-1.37942 -1.070736,-2.36334 -0.762055,-0.71382 -1.823144,-1.03215 -1.051444,-0.31833 -2.643078,-0.31833 h -0.530544 l -0.05788,5.78777 0.05788,6.10608 0.868164,0.01 q 1.437294,0 2.237934,-0.15434 0.80064,-0.16399 1.331185,-0.54984 1.099674,-0.81029 1.099674,-2.04501 0,-0.627 -0.385851,-1.1479 -0.376204,-0.53055 -1.138259,-0.95498 z"
         style="font-size:19.75555611px;fill:#ffffff;fill-opacity:1;stroke:#000000;stroke-width:1.76499999;stroke-miterlimit:4;stroke-dasharray:none;stroke-opacity:1;paint-order:stroke markers fill"
         id="path4782"
         inkscape:connector-curvature="0" />
      <path
         d="m 33.72779,113.07665 q 0.926041,0.63665 1.996777,1.09003 1.080382,0.44373 2.315104,0.69453 0.299034,0.0579 0.299034,0.28939 0,0.31832 -0.443728,0.31832 -1.012858,0 -2.845649,-0.88745 -1.52411,-0.74277 -3.491949,-2.29581 v 0.39549 l 0.0096,1.63987 v 0.93569 h -5.874577 v -0.43409 l 0.01929,-3.14468 0.02894,-3.76204 -0.01929,-5.82635 h 3.8778 q 2.604492,0 3.935677,0.14469 1.331185,0.1447 2.266873,0.5402 1.52411,0.63665 2.411567,2.09324 0.819933,1.35047 0.819933,2.836 0,1.58199 -0.916396,2.9807 -1.475879,2.24758 -4.389051,2.39227 z m -0.916396,-0.59807 0.463021,0.01 q 1.987131,0 3.356901,-1.10932 0.868164,-0.69453 1.331185,-1.73633 0.434082,-0.95498 0.434082,-1.94855 0,-1.68809 -1.099674,-3.01928 -0.839226,-1.03215 -2.102887,-1.45659 -1.263661,-0.42443 -3.559473,-0.45337 l -0.08682,6.463 v 1.74597 l 0.0096,0.45338 q 0.588423,0.56913 1.254015,1.05144 z"
         style="font-size:19.75555611px;fill:#ffffff;fill-opacity:1;stroke:#000000;stroke-width:1.76499999;stroke-miterlimit:4;stroke-dasharray:none;stroke-opacity:1;paint-order:stroke markers fill"
         id="path4784"
         inkscape:connector-curvature="0" />
      <path
         d="m 47.126455,101.69405 q 1.52411,0 2.942112,0.6463 2.083594,0.95498 3.183268,2.94212 0.87781,1.59163 0.87781,3.46301 0,1.50481 -0.665592,2.91317 -0.993566,2.10288 -3.096452,3.19291 -1.543403,0.80064 -3.241146,0.80064 -1.794206,0 -3.395486,-0.90675 -2.131825,-1.19613 -3.038574,-3.3569 -0.559484,-1.32154 -0.559484,-2.72989 0,-1.76527 0.877811,-3.36655 1.080381,-1.96784 3.154329,-2.94211 1.379416,-0.6463 2.961404,-0.65595 z m -0.762055,0.6463 -0.05788,6.27972 0.04823,5.21863 0.0096,1.17685 q 0.327973,0.0579 0.627007,0.0579 2.131826,0 3.810276,-1.17685 1.533757,-1.08038 2.218642,-2.77812 0.482313,-1.18649 0.482313,-2.4598 0,-1.67845 -0.810286,-3.12539 -0.993566,-1.77491 -2.797418,-2.61414 -1.350477,-0.63665 -2.845649,-0.63665 -0.347266,0 -0.684885,0.0579 z"
         style="font-size:19.75555611px;fill:#ffffff;fill-opacity:1;stroke:#000000;stroke-width:1.76499999;stroke-miterlimit:4;stroke-dasharray:none;stroke-opacity:1;paint-order:stroke markers fill"
         id="path4786"
         inkscape:connector-curvature="0" />
      <path
         d="m 61.624796,101.29856 7.717014,13.95815 h -6.684864 l -0.916395,-1.76527 h -3.241146 l -2.855295,-0.01 -0.482313,-0.01 -0.636654,1.17684 q -0.279742,0.53055 -0.395497,0.65595 -0.106109,0.13505 -0.270096,0.13505 -0.327973,0 -0.327973,-0.28939 0,-0.1254 0.183279,-0.46302 0.192926,-0.34727 1.321539,-2.25723 l 5.835992,-9.82955 z m -2.999989,6.3183 -1.688097,2.84565 -1.350478,2.34404 2.893881,0.0386 2.903526,-0.0289 z"
         style="font-size:19.75555611px;fill:#ffffff;fill-opacity:1;stroke:#000000;stroke-width:1.76499999;stroke-miterlimit:4;stroke-dasharray:none;stroke-opacity:1;paint-order:stroke markers fill"
         id="path4788"
         inkscape:connector-curvature="0" />
      <path
         d="m 70.219621,102.08955 h 5.073936 q 1.987132,0 2.990343,0.19293 2.479091,0.47266 4.003201,2.64307 1.196138,1.70739 1.196138,3.76205 0,2.09324 -1.234723,3.81027 -1.485525,2.07395 -3.877799,2.57556 -0.617361,0.1254 -1.099675,0.15434 -0.482313,0.0289 -2.122179,0.0289 h -4.900304 l 0.02894,-6.36654 z m 5.893869,0.61736 -0.04823,7.7556 0.05788,4.17684 q 1.2926,-0.01 1.852084,-0.0965 0.56913,-0.0965 1.302246,-0.41479 1.726682,-0.74276 2.710601,-2.39227 0.858518,-1.418 0.858518,-3.06751 0,-1.79421 -1.012858,-3.29903 -1.803852,-2.67201 -5.344032,-2.67201 z"
         style="font-size:19.75555611px;fill:#ffffff;fill-opacity:1;stroke:#000000;stroke-width:1.76499999;stroke-miterlimit:4;stroke-dasharray:none;stroke-opacity:1;paint-order:stroke markers fill"
         id="path4790"
         inkscape:connector-curvature="0" />
      <path
         d="m 99.833665,109.01557 q 1.562695,-3.7331 2.565905,-6.44371 0.16399,-0.44372 0.26045,-0.54983 0.0965,-0.11576 0.32797,-0.11576 0.19293,0 0.32798,0.0965 0.14469,0.0965 0.14469,0.23151 0,0.12541 -0.75241,1.8328 l -0.55948,1.25401 -4.794196,10.8617 -2.382628,-4.48552 -1.871376,-3.33761 -1.475879,2.70096 -2.24758,4.21542 -0.463021,0.90675 -1.86173,-4.59163 -1.639865,-3.9839 q -1.21543,-2.99999 -2.344043,-5.39227 l -0.05788,-0.1254 h 6.038564 l 0.829579,2.12218 q 1.273307,3.18327 2.01607,4.7749 l 1.784559,-3.27973 0.655946,-1.23472 0.443729,-0.82958 0.742762,-1.38906 q 0.173633,-0.33762 0.327973,-0.60772 l 1.427648,2.78777 q 1.234722,2.36334 2.556261,4.58198 z"
         style="font-size:19.75555611px;fill:#ffffff;fill-opacity:1;stroke:#000000;stroke-width:1.76499999;stroke-miterlimit:4;stroke-dasharray:none;stroke-opacity:1;paint-order:stroke markers fill"
         id="path4792"
         inkscape:connector-curvature="0" />
      <path
         d="m 109.39311,101.29856 7.71701,13.95815 h -6.68486 l -0.91639,-1.76527 h -3.24115 l -2.8553,-0.01 -0.48231,-0.01 -0.63665,1.17684 q -0.27974,0.53055 -0.3955,0.65595 -0.10611,0.13505 -0.2701,0.13505 -0.32797,0 -0.32797,-0.28939 0,-0.1254 0.18328,-0.46302 0.19293,-0.34727 1.32154,-2.25723 l 5.83599,-9.82955 z m -2.99999,6.3183 -1.6881,2.84565 -1.35047,2.34404 2.89388,0.0386 2.90352,-0.0289 z"
         style="font-size:19.75555611px;fill:#ffffff;fill-opacity:1;stroke:#000000;stroke-width:1.76499999;stroke-miterlimit:4;stroke-dasharray:none;stroke-opacity:1;paint-order:stroke markers fill"
         id="path4794"
         inkscape:connector-curvature="0" />
      <path
         d="m 125.5892,107.11526 3.06751,-4.48552 q 0.30868,-0.49196 0.42443,-0.60771 0.11576,-0.11576 0.29904,-0.11576 0.16399,0 0.27009,0.0868 0.11576,0.0868 0.11576,0.21222 0,0.1254 -0.11576,0.29903 -0.0772,0.1254 -0.19292,0.2701 l -0.30868,0.41479 -7.84242,11.02568 -0.31832,0.43408 q -0.41479,0.57878 -0.53055,0.68489 -0.10611,0.10611 -0.29903,0.10611 -0.30868,0 -0.30868,-0.2701 0,-0.14469 0.27974,-0.47267 l 2.19935,-2.99034 -0.2701,-0.36656 q -2.93246,-3.94532 -4.14789,-5.49837 -1.20579,-1.55305 -3.06752,-3.7524 h 6.99355 z"
         style="font-size:19.75555611px;fill:#ffffff;fill-opacity:1;stroke:#000000;stroke-width:1.76499999;stroke-miterlimit:4;stroke-dasharray:none;stroke-opacity:1;paint-order:stroke markers fill"
         id="path4796"
         inkscape:connector-curvature="0" />
      <path
         d="m 141.41872,112.89337 v 0.2701 l 0.01,1.85208 v 0.24116 h -5.88422 l 0.01,-0.58843 0.0482,-6.78132 -0.0386,-3.22186 -0.01,-2.1897 -0.01,-0.38585 h 4.40835 q 2.70095,0 4.09001,0.23151 1.39871,0.23151 2.34405,0.82958 1.2733,0.80064 1.96783,2.22829 0.53055,1.09003 0.53055,2.28616 0,1.2926 -0.59807,2.46945 -0.71382,1.40835 -2.02572,2.17041 -1.30224,0.75241 -3.01928,0.75241 -0.63665,0 -1.82314,-0.16399 z m 0.01,-10.14787 v 0.6463 l -0.0386,6.4437 0.0193,2.40192 q 0.76206,0.20258 1.97749,0.20258 1.09002,0 2.0643,-0.43409 0.97427,-0.43408 1.64951,-1.22507 1.14791,-1.34083 1.14791,-3.11575 0,-1.68809 -1.13826,-3.05786 -0.81029,-0.97428 -2.09324,-1.418 -1.28296,-0.44373 -3.29903,-0.44373 z"
         style="font-size:19.75555611px;fill:#ffffff;fill-opacity:1;stroke:#000000;stroke-width:1.76499999;stroke-miterlimit:4;stroke-dasharray:none;stroke-opacity:1;paint-order:stroke markers fill"
         id="path4798"
         inkscape:connector-curvature="0" />
      <path
         d="m 156.49584,102.08955 v 0.67524 l -0.0482,5.28615 0.0386,7.20577 h -5.89387 l 0.0675,-7.881 -0.0675,-4.81349 0.01,-0.47267 z"
         style="font-size:19.75555611px;fill:#ffffff;fill-opacity:1;stroke:#000000;stroke-width:1.76499999;stroke-miterlimit:4;stroke-dasharray:none;stroke-opacity:1;paint-order:stroke markers fill"
         id="path4800"
         inkscape:connector-curvature="0" />
      <path
         d="m 170.57939,102.08955 -0.21222,0.41479 q -3.41478,6.86814 -5.6913,12.10607 h 2.19935 l 2.30546,-0.0289 0.627,-0.0193 q 0.56913,0 0.56913,0.34727 0,0.2508 -0.13504,0.29903 -0.13505,0.0386 -0.93569,0.0482 h -11.22826 l 0.18328,-0.37621 q 4.21542,-8.45977 5.76847,-12.17359 l -4.36976,0.0965 -0.43408,0.01 q -0.54019,0 -0.54019,-0.35691 0,-0.2508 0.23151,-0.32797 0.13505,-0.0386 0.66559,-0.0386 z"
         style="font-size:19.75555611px;fill:#ffffff;fill-opacity:1;stroke:#000000;stroke-width:1.76499999;stroke-miterlimit:4;stroke-dasharray:none;stroke-opacity:1;paint-order:stroke markers fill"
         id="path4802"
         inkscape:connector-curvature="0" />
      <path
         d="m 183.85266,102.08955 -0.21222,0.41479 q -3.41478,6.86814 -5.6913,12.10607 h 2.19935 l 2.30546,-0.0289 0.627,-0.0193 q 0.56913,0 0.56913,0.34727 0,0.2508 -0.13504,0.29903 -0.13505,0.0386 -0.93569,0.0482 h -11.22826 l 0.18328,-0.37621 q 4.21542,-8.45977 5.76847,-12.17359 l -4.36976,0.0965 -0.43408,0.01 q -0.54019,0 -0.54019,-0.35691 0,-0.2508 0.23151,-0.32797 0.13505,-0.0386 0.66559,-0.0386 z"
         style="font-size:19.75555611px;fill:#ffffff;fill-opacity:1;stroke:#000000;stroke-width:1.76499999;stroke-miterlimit:4;stroke-dasharray:none;stroke-opacity:1;paint-order:stroke markers fill"
         id="path4804"
         inkscape:connector-curvature="0" />
      <path
         d="m 192.1195,101.29856 7.71701,13.95815 h -6.68486 l -0.9164,-1.76527 h -3.24114 l -2.8553,-0.01 -0.48231,-0.01 -0.63666,1.17684 q -0.27974,0.53055 -0.39549,0.65595 -0.10611,0.13505 -0.2701,0.13505 -0.32797,0 -0.32797,-0.28939 0,-0.1254 0.18328,-0.46302 0.19292,-0.34727 1.32154,-2.25723 l 5.83599,-9.82955 z m -2.99999,6.3183 -1.6881,2.84565 -1.35048,2.34404 2.89388,0.0386 2.90353,-0.0289 z"
         style="font-size:19.75555611px;fill:#ffffff;fill-opacity:1;stroke:#000000;stroke-width:1.76499999;stroke-miterlimit:4;stroke-dasharray:none;stroke-opacity:1;paint-order:stroke markers fill"
         id="path4806"
         inkscape:connector-curvature="0" />
    </g>
    <g
       aria-label="Potomac, MD"
       style="font-style:normal;font-variant:normal;font-weight:normal;font-stretch:normal;font-size:10.58333302px;line-height:1.25;font-family:Broadway;-inkscape-font-specification:Broadway;letter-spacing:0px;word-spacing:0px;fill:#ffffff;fill-opacity:1;stroke:#000000;stroke-width:1.56500006;stroke-miterlimit:4;stroke-dasharray:none;stroke-opacity:1;paint-order:stroke markers fill"
       id="text4491">
      <path
         d="m 69.227575,127.60527 v 0.14469 l 0.0052,0.99219 v 0.12919 H 66.08048 l 0.0052,-0.31523 0.02584,-3.63285 -0.02067,-1.72599 -0.0052,-1.17306 -0.0052,-0.2067 h 2.361613 q 1.44694,0 2.19108,0.12402 0.749309,0.12402 1.255738,0.44442 0.682129,0.42891 1.054199,1.19372 0.28422,0.58395 0.28422,1.22473 0,0.69247 -0.320394,1.32292 -0.382405,0.75448 -1.085205,1.16272 -0.697631,0.40308 -1.617472,0.40308 -0.341064,0 -0.976684,-0.0878 z m 0.0052,-5.43637 v 0.34624 l -0.02067,3.45198 0.01033,1.28675 q 0.408244,0.10852 1.059367,0.10852 0.583943,0 1.105875,-0.23255 0.521932,-0.23254 0.883667,-0.65629 0.61495,-0.7183 0.61495,-1.66915 0,-0.90433 -0.609782,-1.63814 -0.434082,-0.52193 -1.121379,-0.75964 -0.687296,-0.23772 -1.767334,-0.23772 z"
         style="fill:#ffffff;fill-opacity:1;stroke:#000000;stroke-width:1.56500006;stroke-miterlimit:4;stroke-dasharray:none;stroke-opacity:1;paint-order:stroke markers fill"
         id="path4761"
         inkscape:connector-curvature="0" />
      <path
         d="m 76.632807,123.08875 q 0.83199,0 1.576131,0.45992 0.687297,0.42374 1.049032,1.15755 0.320393,0.64595 0.320393,1.36942 0,0.4961 -0.191202,0.99736 -0.186036,0.50126 -0.511597,0.88883 -0.454753,0.53227 -1.111043,0.80099 -0.537435,0.22221 -1.121379,0.22221 -0.976684,0 -1.756999,-0.57878 -0.609781,-0.44442 -0.925008,-1.14205 -0.263549,-0.58911 -0.263549,-1.2454 0,-1.28158 0.930175,-2.12907 0.873332,-0.78548 2.005046,-0.80098 z m -0.149862,0.33589 -0.0155,5.20899 q 0.160197,0.0103 0.222209,0.0103 0.718302,0 1.374593,-0.40307 0.630452,-0.39275 0.945679,-1.04387 0.248047,-0.51676 0.248047,-1.13688 0,-1.2454 -0.919841,-2.02055 -0.744141,-0.62528 -1.617472,-0.62528 -0.07235,0 -0.237712,0.0103 z"
         style="fill:#ffffff;fill-opacity:1;stroke:#000000;stroke-width:1.56500006;stroke-miterlimit:4;stroke-dasharray:none;stroke-opacity:1;paint-order:stroke markers fill"
         id="path4763"
         inkscape:connector-curvature="0" />
      <path
         d="m 83.138869,121.40926 -0.05684,1.66915 -0.0052,0.1602 q 0.449585,0 0.816488,-0.0362 0.06201,-0.005 0.10852,-0.005 0.227377,0 0.227377,0.2067 0,0.1912 -0.237712,0.1912 -0.07235,0 -0.180868,-0.0103 -0.408243,-0.031 -0.583943,-0.031 h -0.149862 l -0.0052,1.00253 0.02067,2.01021 0.0155,1.07487 q 0,0.37724 0.05684,0.5271 0.05684,0.14986 0.196371,0.14986 0.186035,0 0.397908,-0.21704 0.206706,-0.21704 0.325562,-0.53227 0.10852,-0.29972 0.258382,-0.29972 0.1757,0 0.1757,0.19637 0,0.19637 -0.1757,0.49093 -0.1757,0.28938 -0.423747,0.50642 -0.609782,0.53227 -1.581299,0.53227 -0.914673,0 -1.415934,-0.55294 -0.258382,-0.27905 -0.356567,-0.62011 -0.09819,-0.34624 -0.09819,-0.95602 v -0.38757 l 0.0052,-1.09037 v -1.85002 q -0.07235,-0.005 -0.103353,-0.005 -0.05168,0 -0.206706,0.0103 -0.129191,0.0103 -0.217041,0.0103 -0.253214,0 -0.253214,-0.1912 0,-0.18603 0.242879,-0.18603 0.113688,0 0.160197,0.005 l 0.377238,0.0258 v -0.58394 q 1.529622,-0.55294 2.666504,-1.2144 z"
         style="fill:#ffffff;fill-opacity:1;stroke:#000000;stroke-width:1.56500006;stroke-miterlimit:9.3;stroke-dasharray:none;stroke-opacity:1;paint-order:stroke markers fill;stroke-linejoin:miter"
         id="path4765"
         inkscape:connector-curvature="0" />
      <path
         d="m 87.557204,123.08875 q 0.83199,0 1.576131,0.45992 0.687296,0.42374 1.049032,1.15755 0.320393,0.64595 0.320393,1.36942 0,0.4961 -0.191202,0.99736 -0.186036,0.50126 -0.511597,0.88883 -0.454753,0.53227 -1.111043,0.80099 -0.537435,0.22221 -1.121379,0.22221 -0.976684,0 -1.756999,-0.57878 -0.609781,-0.44442 -0.925008,-1.14205 -0.263549,-0.58911 -0.263549,-1.2454 0,-1.28158 0.930175,-2.12907 0.873332,-0.78548 2.005046,-0.80098 z m -0.149862,0.33589 -0.0155,5.20899 q 0.160197,0.0103 0.222209,0.0103 0.718302,0 1.374593,-0.40307 0.630452,-0.39275 0.945679,-1.04387 0.248047,-0.51676 0.248047,-1.13688 0,-1.2454 -0.919841,-2.02055 -0.744141,-0.62528 -1.617472,-0.62528 -0.07235,0 -0.237712,0.0103 z"
         style="fill:#ffffff;fill-opacity:1;stroke:#000000;stroke-width:1.56500006;stroke-miterlimit:4;stroke-dasharray:none;stroke-opacity:1;paint-order:stroke markers fill"
         id="path4767"
         inkscape:connector-curvature="0" />
      <path
         d="m 98.037185,124.06543 q 0.671794,-0.51676 1.25057,-0.74414 0.583944,-0.23254 1.229895,-0.23254 1.18339,0 1.64848,0.75964 0.13436,0.22738 0.18604,0.5271 0.0517,0.29455 0.0517,0.8785 l -0.0207,1.36426 v 0.32039 l 0.0258,1.72082 0.005,0.21188 h -2.651002 l 0.02067,-1.63298 0.02584,-1.64331 -0.0052,-0.66662 q -0.0052,-0.36691 0,-0.42892 0.0052,-0.40824 -0.08785,-0.56327 -0.09302,-0.15503 -0.335896,-0.15503 -0.258383,0 -0.568441,0.14986 -0.304891,0.14986 -0.661458,0.45475 0.02584,0.20154 0.02584,0.57878 l -0.01033,1.29191 -0.01034,1.45211 q 0,0.64079 0.02584,1.16272 H 95.53581 l 0.01033,-1.12655 0.0155,-2.42879 q 0,-1.19889 -0.03101,-1.32292 -0.05684,-0.22221 -0.372071,-0.22221 -0.237711,0 -0.537435,0.14987 -0.294555,0.14469 -0.65629,0.44441 l -0.02067,2.18592 0.02584,2.32027 h -2.651001 v -0.20671 l 0.01034,-0.94051 0.0052,-1.28157 0.0052,-1.24024 -0.02067,-1.97404 h 2.645834 v 0.72347 q 0.578776,-0.43408 1.152384,-0.64595 0.578776,-0.21704 1.152385,-0.21704 0.862996,0 1.390096,0.43408 0.211873,0.17053 0.377237,0.5426 z"
         style="fill:#ffffff;fill-opacity:1;stroke:#000000;stroke-width:1.56500006;stroke-miterlimit:4;stroke-dasharray:none;stroke-opacity:1;paint-order:stroke markers fill"
         id="path4769"
         inkscape:connector-curvature="0" />
      <path
         d="m 107.22009,125.42969 v -0.63045 q -0.005,-0.6563 -0.0207,-0.80616 -0.0155,-0.14986 -0.093,-0.26871 -0.18604,-0.28939 -0.86817,-0.28939 -1.0542,0 -1.6278,0.66146 -0.23255,0.26871 -0.39275,0.26871 -0.11885,0 -0.2067,-0.0827 -0.0879,-0.0827 -0.0879,-0.1912 0,-0.32556 0.76998,-0.6718 0.7338,-0.33072 1.89652,-0.33072 1.91203,0 2.69751,0.57877 0.34107,0.25322 0.44442,0.56844 0.10335,0.31523 0.10335,1.11105 v 2.05155 q -0.0207,0.56844 0.031,0.85783 0.0568,0.28422 0.24805,0.61495 h -2.89388 v -0.5426 q -0.47543,0.32556 -0.94568,0.49092 -0.46509,0.16537 -0.91984,0.16537 -0.76998,0 -1.36943,-0.44959 -0.78031,-0.58911 -0.78031,-1.52962 0,-0.83199 0.63045,-1.34359 0.7338,-0.60461 1.81901,-0.60461 0.44442,0 0.78548,0.0827 0.34107,0.0775 0.78032,0.28939 z m 0.005,0.37207 q -0.65112,-0.32556 -1.00769,-0.32556 -0.29972,0 -0.39274,0.23771 -0.0517,0.12919 -0.0517,0.74931 v 1.23506 q 0.005,0.40825 0.0258,0.4961 0.0517,0.23771 0.3514,0.23771 0.23771,0 0.5271,-0.13953 0.29456,-0.14469 0.53744,-0.37724 z"
         style="fill:#ffffff;fill-opacity:1;stroke:#000000;stroke-width:1.56500006;stroke-miterlimit:4;stroke-dasharray:none;stroke-opacity:1;paint-order:stroke markers fill"
         id="path4771"
         inkscape:connector-curvature="0" />
      <path
         d="m 113.4471,124.34965 v 3.45199 l -0.005,0.33072 q 0,0.3204 0.0775,0.42892 0.0827,0.10335 0.32556,0.10335 0.60979,0 1.1989,-0.37207 0.58911,-0.37724 0.96118,-1.00769 0.11369,-0.1912 0.22221,-0.1912 0.0775,0 0.13952,0.0724 0.0672,0.0672 0.0672,0.14469 0,0.18603 -0.29972,0.5271 -0.29972,0.3359 -0.69763,0.60461 -0.81132,0.54261 -1.73633,0.54261 -1.26607,0 -2.09289,-0.78549 -0.94052,-0.88366 -0.94052,-2.16524 0,-1.32291 0.99219,-2.20141 0.83199,-0.74414 2.05156,-0.74414 0.97151,0 1.70015,0.45992 0.31006,0.19637 0.50643,0.42374 0.19637,0.22221 0.19637,0.37724 0,0.0775 -0.0568,0.13436 -0.0568,0.0517 -0.13953,0.0517 -0.10852,0 -0.27389,-0.24805 -0.23771,-0.34623 -0.7493,-0.59945 -0.5116,-0.25838 -0.96635,-0.25838 -0.30489,0 -0.39274,0.17053 -0.0878,0.17053 -0.0878,0.74931 z"
         style="fill:#ffffff;fill-opacity:1;stroke:#000000;stroke-width:1.56500006;stroke-miterlimit:4;stroke-dasharray:none;stroke-opacity:1;paint-order:stroke markers fill"
         id="path4773"
         inkscape:connector-curvature="0" />
      <path
         d="m 119.68961,128.37008 q -0.25321,0.33073 -0.62528,0.49609 -0.37207,0.16536 -0.86817,0.16536 -0.53743,0 -0.93017,-0.24287 -0.48059,-0.29456 -0.48059,-0.84233 0,-0.43408 0.31005,-0.74931 0.48576,-0.49609 1.28158,-0.49609 0.7338,0 1.17822,0.41341 0.43408,0.40308 0.43408,1.09037 0,0.43925 -0.18603,0.81132 -0.18604,0.37724 -0.52193,0.59945 -0.49093,0.3359 -1.34876,0.3359 -0.3824,0 -0.3824,-0.15503 0,-0.1292 0.1912,-0.1292 l 0.16536,0.0103 h 0.10336 q 0.5426,0 0.90433,-0.1602 0.46509,-0.20153 0.66663,-0.69246 0.0517,-0.11886 0.10852,-0.45475 z"
         style="fill:#ffffff;fill-opacity:1;stroke:#000000;stroke-width:1.56500006;stroke-miterlimit:4;stroke-dasharray:none;stroke-opacity:1;paint-order:stroke markers fill"
         id="path4775"
         inkscape:connector-curvature="0" />
      <path
         d="m 130.7897,121.57463 1.12655,3.84989 0.5116,1.70532 0.45992,1.54513 0.062,0.19637 h -3.14193 l -0.99219,-3.65353 -2.13423,3.20911 -2.19108,-3.04891 q -0.31523,1.11621 -0.6873,2.73885 -0.13436,0.62012 -0.19637,0.73897 -0.0568,0.11369 -0.23771,0.11369 -0.22738,0 -0.22738,-0.15503 0,-0.0465 0.1447,-0.52193 l 0.32039,-1.10071 0.55811,-1.90169 1.09037,-3.71553 2.83187,4.09794 z"
         style="fill:#ffffff;fill-opacity:1;stroke:#000000;stroke-width:1.56500006;stroke-miterlimit:4;stroke-dasharray:none;stroke-opacity:1;paint-order:stroke markers fill"
         id="path4777"
         inkscape:connector-curvature="0" />
      <path
         d="m 133.67325,121.81751 h 2.71818 q 1.06454,0 1.60197,0.10335 1.32809,0.25321 2.14457,1.41593 0.64079,0.91467 0.64079,2.01538 0,1.12138 -0.66146,2.04122 -0.79581,1.11105 -2.07739,1.37976 -0.33073,0.0672 -0.58911,0.0827 -0.25838,0.0155 -1.13688,0.0155 h -2.62516 l 0.0155,-3.41065 z m 3.15743,0.33072 -0.0258,4.15479 0.031,2.23759 q 0.69247,-0.005 0.99219,-0.0517 0.30489,-0.0517 0.69763,-0.22221 0.92501,-0.3979 1.45211,-1.28157 0.45992,-0.75965 0.45992,-1.64331 0,-0.96118 -0.5426,-1.76734 -0.96635,-1.43143 -2.86288,-1.43143 z"
         style="fill:#ffffff;fill-opacity:1;stroke:#000000;stroke-width:1.56500006;stroke-miterlimit:4;stroke-dasharray:none;stroke-opacity:1;paint-order:stroke markers fill"
         id="path4779"
         inkscape:connector-curvature="0" />
    </g>
  </g>
</svg>
